<?xml version="1.0" encoding="UTF-8"?>
<svg width="16px" height="16px" viewBox="0 0 16 16" version="1.1" xmlns="http://www.w3.org/2000/svg" xmlns:xlink="http://www.w3.org/1999/xlink">
    <!-- Generator: Sketch 58 (84663) - https://sketch.com -->
    <title>basket</title>
    <desc>Created with Sketch.</desc>
    <g id="basket" stroke="none" stroke-width="1" fill="none" fill-rule="evenodd">
        <g fill="#151312" fill-rule="nonzero" id="Shape">
            <path d="M13.0003974,12 L5.50016815,12 C5.06464429,11.9997049 4.67938493,11.7053288 4.54763903,11.2721739 L1.76755404,2.08695652 L1.00003057,2.08695652 C0.447728938,2.08695652 0,1.61977539 0,1.04347826 C0,0.467181131 0.447728938,0 1.00003057,0 L2.50007643,0 C2.93627609,0.000655202868 3.32174597,0.296247858 3.45260555,0.730434783 L4.18012779,3.13043478 L15.0004586,3.13043478 C15.317895,3.13059947 15.6164035,3.28801152 15.8048074,3.55459084 C15.9932113,3.82117016 16.0491316,4.1652518 15.9554878,4.48173913 L13.9554266,11.2643478 C13.8260747,11.7015181 13.4388786,11.9997725 13.0003974,12 Z M5,14.5 C5,15.3284271 5.67157288,16 6.5,16 C7.32842712,16 8,15.3284271 8,14.5 C8,13.6715729 7.32842712,13 6.5,13 C5.67157288,13 5,13.6715729 5,14.5 Z M11,14.5 C11,15.3284271 11.6715729,16 12.5,16 C13.3284271,16 14,15.3284271 14,14.5 C14,13.6715729 13.3284271,13 12.5,13 C11.6715729,13 11,13.6715729 11,14.5 Z"></path>
        </g>
    </g>
</svg>