<svg xmlns="http://www.w3.org/2000/svg" width="16" height="16" viewBox="0 0 16 16">
    <path fill="#FFF" fill-rule="nonzero" d="M11 0a5 5 0 0 1 5 5v6a5 5 0 0 1-5 5H5a5 5 0 0 1-5-5V5a5 5 0 0 1 5-5zm0 1.5H5C3.07 1.5 1.5 3.07 1.5 5v6c0 1.93 1.57 3.5 3.5 3.5h6c1.93 0 3.5-1.57 3.5-3.5V5c0-1.93-1.57-3.5-3.5-3.5zM8 4a4 4 0 1 1 0 8 4 4 0 0 1 0-8zm0 1.5A2.503 2.503 0 0 0 5.5 8c0 1.378 1.122 2.5 2.5 2.5s2.5-1.122 2.5-2.5c0-1.379-1.122-2.5-2.5-2.5zm4.3-2.333a.533.533 0 1 1 0 1.066.533.533 0 0 1 0-1.066z"/>
</svg>
