<svg xmlns="http://www.w3.org/2000/svg" width="203" height="47" viewBox="0 0 203 47">
    <defs>
        <radialGradient id="a" cx="10.539%" cy="6.915%" r="110.3%" fx="10.539%" fy="6.915%" gradientTransform="scale(1 .9149) rotate(53.228 .099 .072)">
            <stop offset="0%" stop-color="#1DDDBD"/>
            <stop offset="41.281%" stop-color="#1ED9C0"/>
            <stop offset="100%" stop-color="#2978FF"/>
        </radialGradient>
        <radialGradient id="b" cx="39.747%" cy="109.339%" r="67.853%" fx="39.747%" fy="109.339%" gradientTransform="scale(-.9978 -1) rotate(76.999 1.374 -.5)">
            <stop offset="0%" stop-color="#FFF"/>
            <stop offset="100%" stop-color="#FFF" stop-opacity="0"/>
        </radialGradient>
        <radialGradient id="c" cx="39.747%" cy="109.339%" r="67.898%" fx="39.747%" fy="109.339%" gradientTransform="scale(-.98503 -1) rotate(76.836 1.376 -.505)">
            <stop offset="0%" stop-color="#FFF"/>
            <stop offset="100%" stop-color="#FFF" stop-opacity="0"/>
        </radialGradient>
        <radialGradient id="d" cx="39.747%" cy="109.339%" r="67.908%" fx="39.747%" fy="109.339%" gradientTransform="scale(-.98223 -1) rotate(76.8 1.376 -.506)">
            <stop offset="0%" stop-color="#FFF"/>
            <stop offset="100%" stop-color="#FFF" stop-opacity="0"/>
        </radialGradient>
        <radialGradient id="e" cx="39.747%" cy="109.339%" r="67.858%" fx="39.747%" fy="109.339%" gradientTransform="matrix(-.22446 -.9743 .97094 -.22524 -.575 1.727)">
            <stop offset="0%" stop-color="#FFF"/>
            <stop offset="100%" stop-color="#FFF" stop-opacity="0"/>
        </radialGradient>
        <radialGradient id="f" cx="39.747%" cy="109.339%" r="67.871%" fx="39.747%" fy="109.339%" gradientTransform="scale(-.99253 -1) rotate(76.932 1.375 -.502)">
            <stop offset="0%" stop-color="#FFF"/>
            <stop offset="100%" stop-color="#FFF" stop-opacity="0"/>
        </radialGradient>
        <radialGradient id="g" cx="39.747%" cy="109.339%" r="67.868%" fx="39.747%" fy="109.339%" gradientTransform="matrix(-.22443 -.97415 .96783 -.2259 -.572 1.728)">
            <stop offset="0%" stop-color="#FFF"/>
            <stop offset="100%" stop-color="#FFF" stop-opacity="0"/>
        </radialGradient>
    </defs>
    <g fill="none" fill-rule="evenodd">
        <path fill="#FFF" d="M101.414 18.438l4.828 11.584h.066l4.696-11.584h3.306l-8.432 19.35c-1.168 2.809-2.92 4.212-5.257 4.212a5.72 5.72 0 0 1-2.248-.46l.76-2.633c.484.219.981.33 1.488.33.573 0 1.042-.154 1.405-.461.364-.309.722-.835 1.075-1.58l1.686-3.653-6.68-15.105h3.307zm-13.143-.527c1.234 0 2.342.263 3.324.79.98.526 1.713 1.185 2.198 1.974h.133v-2.238h2.91v16.126h-2.91v-2.238h-.133c-.485.79-1.218 1.448-2.198 1.975-.982.526-2.09.79-3.324.79-2.095 0-3.901-.823-5.422-2.468s-2.282-3.686-2.282-6.122c0-2.435.76-4.475 2.282-6.12 1.52-1.646 3.327-2.469 5.422-2.469zm41.96-6.91v23.562h-2.91v-2.238h-.132c-.485.79-1.218 1.448-2.198 1.975-.982.526-2.09.79-3.324.79-2.095 0-3.901-.823-5.422-2.468s-2.282-3.686-2.282-6.122c0-2.435.76-4.475 2.282-6.12 1.52-1.646 3.327-2.469 5.422-2.469 1.234 0 2.342.263 3.324.79.98.526 1.713 1.185 2.198 1.974h.133l-.133-2.238v-7.436h3.043zm20.113 6.91c2.402 0 4.326.78 5.77 2.337 1.443 1.558 2.166 3.642 2.166 6.253l-.034.559H145.45c.088 1.624.634 2.907 1.637 3.85 1.003.944 2.176 1.415 3.52 1.415 2.184 0 3.66-.922 4.432-2.764l2.711 1.119c-.528 1.25-1.4 2.298-2.612 3.143-1.212.844-2.7 1.267-4.464 1.267-2.447 0-4.436-.811-5.968-2.436-1.532-1.623-2.298-3.675-2.298-6.153 0-2.348.744-4.366 2.232-6.056 1.488-1.69 3.389-2.534 5.704-2.534zm16.83 0c1.233 0 2.341.263 3.323.79.98.526 1.714 1.185 2.199 1.974h.132v-2.238h2.91v16.126h-2.91v-2.238h-.132c-.485.79-1.219 1.448-2.199 1.975-.982.526-2.09.79-3.323.79-2.095 0-3.902-.823-5.423-2.468-1.52-1.645-2.282-3.686-2.282-6.122 0-2.435.761-4.475 2.282-6.12 1.521-1.646 3.328-2.469 5.423-2.469zm30.04 0c1.917 0 3.361.609 4.331 1.827.97 1.217 1.455 2.869 1.455 4.953v9.872h-3.042v-9.411c0-1.624-.297-2.776-.892-3.456-.595-.68-1.5-1.02-2.712-1.02-1.19 0-2.177.504-2.96 1.513-.783 1.01-1.173 2.162-1.173 3.456v8.918h-3.042v-9.411c0-1.624-.298-2.776-.893-3.456-.595-.68-1.5-1.02-2.711-1.02-1.19 0-2.178.504-2.96 1.513a5.492 5.492 0 0 0-1.174 3.456v8.918H178.4V18.438h2.91v2.237h.132c.463-.767 1.174-1.42 2.134-1.958.958-.537 1.91-.805 2.859-.805 2.514 0 4.22 1.03 5.126 3.092 1.322-2.062 3.207-3.092 5.654-3.092zM67.242 11c3.637 0 6.546 1.092 8.729 3.275 2.183 2.183 3.274 5.018 3.274 8.507 0 3.488-1.091 6.323-3.274 8.506-2.183 2.184-5.092 3.275-8.73 3.275H60V11h7.242zm74.092 7.043c.33 0 .694.022 1.09.065v2.962a11.941 11.941 0 0 0-1.222-.065c-1.456 0-2.651.423-3.588 1.266-.937.845-1.406 2.003-1.406 3.472v8.82h-3.042V18.438h2.91v2.632h.132c.352-.943 1.009-1.683 1.967-2.22.96-.539 2.012-.807 3.159-.807zm-52.567 2.632c-1.411 0-2.623.532-3.637 1.597-1.014 1.064-1.521 2.473-1.521 4.228 0 1.756.507 3.166 1.52 4.23 1.015 1.064 2.227 1.595 3.638 1.595 1.432 0 2.65-.527 3.654-1.58 1.002-1.053 1.505-2.468 1.505-4.245 0-1.777-.503-3.192-1.505-4.245-1.004-1.053-2.222-1.58-3.654-1.58zm33.396 0c-1.411 0-2.623.532-3.637 1.597-1.014 1.064-1.521 2.473-1.521 4.228 0 1.756.507 3.166 1.52 4.23 1.015 1.064 2.227 1.595 3.638 1.595 1.432 0 2.65-.527 3.654-1.58 1.002-1.053 1.505-2.468 1.505-4.245 0-1.777-.503-3.192-1.505-4.245-1.004-1.053-2.222-1.58-3.654-1.58zm45.507 0c-1.412 0-2.624.532-3.638 1.597-1.013 1.064-1.52 2.473-1.52 4.228 0 1.756.507 3.166 1.52 4.23 1.014 1.064 2.226 1.595 3.638 1.595 1.432 0 2.65-.527 3.654-1.58 1.002-1.053 1.504-2.468 1.504-4.245 0-1.777-.502-3.192-1.504-4.245-1.004-1.053-2.222-1.58-3.654-1.58zM67.242 13.896h-4.2v17.771h4.2c2.732 0 4.898-.778 6.496-2.336 1.599-1.559 2.398-3.74 2.398-6.55 0-2.785-.8-4.963-2.398-6.531-1.598-1.569-3.764-2.354-6.496-2.354zm83.036 6.78c-1.125 0-2.1.351-2.927 1.053s-1.394 1.645-1.703 2.83h9.39c-.066-.922-.49-1.8-1.272-2.633-.783-.834-1.946-1.25-3.488-1.25z"/>
        <path fill="url(#a)" d="M22.528 4.471c4.629-1.662 11.98 1.054 13.162 8.44l-.058.042.056-.038v.002c2.903-2.07 6.087-1.348 8.176.435 3.747 3.199 4.904 11.07-.87 15.79-.01-.002-.013 0-.015.001 3.23 1.493 4.365 4.542 3.874 7.25-.883 4.86-7.076 9.78-14.032 7.114L31.754 32.67a16.507 16.507 0 0 0-.007-.001l1.071 10.841c.326 3.468-1.652 5.977-4.136 6.964l-.208.079c-4.63 1.661-11.947-1.32-13.128-8.707-2.902 2.064-6.114 1.578-8.201-.204-3.747-3.198-4.921-11.069.853-15.79l9.92 4.448-9.92-4.451c.065-.053.147-.118.228-.18l-.026.02-.203.16c-3.237-1.493-4.353-4.613-3.86-7.323.882-4.86 7.057-9.775 14.012-7.11l1.128 10.863h.003l-1.126-10.867c.133.053.323.13.455.19.743.333 1.451.713 2.123 1.135a14.613 14.613 0 0 0-2.584-1.328c-.332-3.563 1.798-6.011 4.38-6.938z" transform="translate(-3 -4)"/>
        <g opacity=".65">
            <path fill="url(#b)" d="M19.169 22.27l-1.135-10.95c-6.987-2.684-13.19 2.266-14.078 7.16-.494 2.73.627 5.872 3.879 7.374 2.317-1.874 6.796-3.918 11.334-3.584z" transform="translate(-3 -4)"/>
            <path fill="url(#c)" d="M18.18 39.022l-1.104-10.873c-7.018-2.646-13.292 2.339-14.2 7.209-.506 2.715.686 5.757 3.951 7.24 2.332-1.879 6.58-3.799 11.352-3.576z" transform="rotate(-60 5.508 35.604)"/>
            <path fill="url(#d)" d="M32.104 48.336l-1.113-10.86c-7.036-2.692-13.312 2.173-14.188 7.037-.489 2.712.683 5.823 3.958 7.328 2.301-1.854 6.717-3.792 11.343-3.505z" transform="rotate(-120 21.745 43.14)"/>
            <path fill="url(#e)" d="M46.98 40.839l-1.072-10.914c-6.987-2.684-13.209 2.27-14.096 7.165-.494 2.729.648 5.802 3.9 7.304 2.246-1.859 6.441-3.798 11.268-3.555z" transform="rotate(180 37.841 34.781)"/>
            <path fill="url(#f)" d="M48.034 23.938l-1.045-10.864c-7.018-2.646-13.3 2.323-14.208 7.194-.506 2.715.464 5.85 3.73 7.333 1.146-.832 2.587-1.778 4.294-2.442a17.82 17.82 0 0 1 7.229-1.22z" transform="rotate(120 39.999 17.103)"/>
            <path fill="url(#g)" d="M34.175 14.806L32.904 3.84c-7.035-2.692-13.097 2.336-13.973 7.2-.488 2.713.577 5.8 3.852 7.304 2.27-1.835 6.58-3.827 11.392-3.538z" transform="rotate(60 28.46 6.118)"/>
        </g>
    </g>
</svg>
